<svg width="800px" height="800px" viewBox="0 0 24 24" fill="none" xmlns="http://www.w3.org/2000/svg">

  <g id="html">
    <path d="M11.677 13.196l-0.289-3.387 12.536 0.004 0.287-3.268-16.421-0.004 0.87 9.983h11.374l-0.406 4.27-3.627 1.002-3.683-1.009-0.234-2.63h-3.252l0.411 5.198 6.757 1.807 6.704-1.798 0.927-10.166h-11.954zM2.914 1.045h26.172l-2.38 26.874-10.734 3.037-10.673-3.038z" fill="#000000" />
  </g>

  <g id="css">
    <path d="m19.366 21.423 1.913-21.423h-21.279l.025.278 1.885 21.148.016.176 8.633 2.398h.136l8.653-2.4.016-.176zm-8.708-16.744h6.183l-.186 2.16-6.1 2.712.102.488h5.724l-.659 7.551-5.086 1.41-5.084-1.408-.32-3.616h2.093l.168 1.833.016.178 3.085.82h.133l3.051-.848.015-.177.288-3.386.023-.276h-9.047l-.19-2.173 6.309-2.701-.1-.49h-6.48l-.185-2.08h6.24z" fill="#000000" />
  </g>
    
  <g id="scss">
    <path d="M16 0c8.839 0 16 7.161 16 16s-7.161 16-16 16c-8.839 0-16-7.161-16-16s7.161-16 16-16zM12.817 21.328c0.235 0.865 0.209 1.667-0.031 2.391l-0.084 0.24c-0.031 0.083-0.072 0.161-0.104 0.235-0.187 0.391-0.437 0.749-0.739 1.083-0.933 1.011-2.229 1.396-2.787 1.073-0.604-0.349-0.303-1.781 0.776-2.923 1.161-1.224 2.828-2.011 2.828-2.011v-0.004zM26.036 6.849c-0.724-2.844-5.437-3.776-9.896-2.193-2.656 0.943-5.525 2.423-7.593 4.355-2.459 2.296-2.849 4.296-2.687 5.129 0.572 2.948 4.609 4.881 6.271 6.308v0.011c-0.491 0.239-4.073 2.036-4.912 3.901-0.901 1.957 0.141 3.359 0.817 3.536 2.1 0.583 4.261-0.48 5.423-2.199 1.12-1.681 1.020-3.837 0.536-4.9 0.661-0.177 1.443-0.261 2.443-0.141 2.803 0.323 3.36 2.084 3.24 2.803s-0.699 1.14-0.901 1.26c-0.197 0.12-0.26 0.156-0.24 0.24 0.021 0.12 0.12 0.12 0.281 0.099 0.219-0.036 1.459-0.599 1.521-1.959 0.057-1.724-1.584-3.64-4.5-3.604-1.203 0.027-1.964 0.125-2.5 0.344-0.041-0.057-0.084-0.099-0.141-0.141-1.801-1.937-5.14-3.296-5-5.88 0.043-0.937 0.381-3.416 6.401-6.416 4.937-2.464 8.88-1.781 9.557-0.281 0.98 2.14-2.099 6.12-7.239 6.697-1.959 0.219-2.98-0.536-3.24-0.817-0.281-0.303-0.317-0.323-0.423-0.26-0.156 0.077-0.057 0.339 0 0.5 0.161 0.4 0.781 1.099 1.865 1.457 0.937 0.303 3.24 0.48 6-0.599 3.099-1.197 5.516-4.536 4.817-7.339z" fill="#000000"/>
  </g>

  <g id="react">
    <path d="M12,10.11A1.87,1.87,0,1,1,10.13,12,1.88,1.88,0,0,1,12,10.11M7.37,20c.63.38,2-.2,3.6-1.7a24.22,24.22,0,0,1-1.51-1.9A22.7,22.7,0,0,1,7.06,16c-.51,2.14-.32,3.61.31,4m.71-5.74-.29-.51a7.91,7.91,0,0,0-.29.86c.27.06.57.11.88.16l-.3-.51m6.54-.76.81-1.5-.81-1.5c-.3-.53-.62-1-.91-1.47C13.17,9,12.6,9,12,9s-1.17,0-1.71,0c-.29.47-.61.94-.91,1.47L8.57,12l.81,1.5c.3.53.62,1,.91,1.47.54,0,1.11,0,1.71,0s1.17,0,1.71,0c.29-.47.61-.94.91-1.47M12,6.78c-.19.22-.39.45-.59.72h1.18c-.2-.27-.4-.5-.59-.72m0,10.44c.19-.22.39-.45.59-.72H11.41c.2.27.4.5.59.72M16.62,4c-.62-.38-2,.2-3.59,1.7a24.22,24.22,0,0,1,1.51,1.9,22.7,22.7,0,0,1,2.4.36c.51-2.14.32-3.61-.32-4m-.7,5.74.29.51a7.91,7.91,0,0,0,.29-.86c-.27-.06-.57-.11-.88-.16l.3.51m1.45-7c1.47.84,1.63,3.05,1,5.63,2.54.75,4.37,2,4.37,3.68s-1.83,2.93-4.37,3.68c.62,2.58.46,4.79-1,5.63s-3.45-.12-5.37-1.95c-1.92,1.83-3.91,2.79-5.38,1.95s-1.62-3-1-5.63c-2.54-.75-4.37-2-4.37-3.68S3.08,9.07,5.62,8.32c-.62-2.58-.46-4.79,1-5.63s3.46.12,5.38,1.95c1.92-1.83,3.91-2.79,5.37-1.95M17.08,12A22.51,22.51,0,0,1,18,14.26c2.1-.63,3.28-1.53,3.28-2.26S20.07,10.37,18,9.74A22.51,22.51,0,0,1,17.08,12M6.92,12A22.51,22.51,0,0,1,6,9.74c-2.1.63-3.28,1.53-3.28,2.26S3.93,13.63,6,14.26A22.51,22.51,0,0,1,6.92,12m9,2.26-.3.51c.31,0,.61-.1.88-.16a7.91,7.91,0,0,0-.29-.86l-.29.51M13,18.3c1.59,1.5,3,2.08,3.59,1.7s.83-1.82.32-4a22.7,22.7,0,0,1-2.4.36A24.22,24.22,0,0,1,13,18.3M8.08,9.74l.3-.51c-.31,0-.61.1-.88.16a7.91,7.91,0,0,0,.29.86l.29-.51M11,5.7C9.38,4.2,8,3.62,7.37,4s-.82,1.82-.31,4a22.7,22.7,0,0,1,2.4-.36A24.22,24.22,0,0,1,11,5.7Z" fill="#000000" />
  </g>

  <g id="redux">
    <path d="M22.177 22.005c1.161-0.099 2.057-1.12 2-2.339-0.063-1.219-1.063-2.197-2.276-2.197h-0.084c-1.255 0.041-2.239 1.099-2.197 2.359 0.041 0.641 0.301 1.156 0.661 1.536-1.401 2.719-3.495 4.715-6.677 6.396-2.135 1.115-4.391 1.537-6.588 1.235-1.839-0.255-3.276-1.077-4.156-2.396-1.319-2-1.439-4.151-0.339-6.312 0.801-1.557 2-2.699 2.796-3.256-0.197-0.52-0.437-1.395-0.557-2.057-5.916 4.235-5.312 10.032-3.515 12.767 1.339 2 4.072 3.276 7.067 3.276 0.803 0 1.641-0.057 2.459-0.261 5.199-1 9.131-4.115 11.385-8.708zM29.307 17.011c-3.093-3.636-7.651-5.636-12.843-5.636h-0.683c-0.333-0.735-1.115-1.197-1.995-1.197h-0.057c-1.26 0-2.24 1.083-2.199 2.339 0.043 1.197 1.057 2.197 2.276 2.197h0.1c0.9-0.041 1.677-0.599 2-1.401h0.739c3.079 0 5.991 0.901 8.652 2.657 2.031 1.337 3.495 3.099 4.312 5.197 0.719 1.713 0.677 3.396-0.063 4.797-1.135 2.192-3.057 3.353-5.588 3.353-1.599 0-3.156-0.5-3.959-0.859-0.479 0.396-1.281 1.057-1.86 1.459 1.761 0.796 3.537 1.255 5.256 1.255 3.896 0 6.792-2.193 7.891-4.312 1.197-2.396 1.099-6.433-1.959-9.891zM8.651 22.724c0.043 1.197 1.057 2.197 2.281 2.197h0.079c1.281-0.041 2.255-1.099 2.197-2.359 0-1.199-1.036-2.199-2.255-2.199h-0.084c-0.077 0-0.197 0-0.301 0.043-1.656-2.797-2.355-5.797-2.095-9.032 0.157-2.437 0.959-4.552 2.396-6.312 1.199-1.495 3.453-2.24 4.995-2.276 4.313-0.084 6.115 5.296 6.251 7.432l2 0.599c-0.464-6.552-4.536-9.989-8.432-9.989-3.656 0-7.032 2.656-8.391 6.552-1.855 5.199-0.636 10.188 1.64 14.188-0.197 0.255-0.317 0.719-0.281 1.156z" fill="#000000" />
  </g>

  <g id="git">
    <path d="M58.3067362,21.4281798 C55.895743,17.2972267 52.6253846,14.0267453 48.4948004,11.615998 C44.3636013,9.20512774 39.8535636,8 34.9614901,8 C30.0700314,8 25.5585181,9.20549662 21.4281798,11.615998 C17.2972267,14.0266224 14.0269912,17.2972267 11.615998,21.4281798 C9.20537366,25.5590099 8,30.0699084 8,34.9607523 C8,40.8357654 9.71405782,46.1187277 13.1430342,50.8109917 C16.5716416,55.5036246 21.0008949,58.7507436 26.4304251,60.5527176 C27.0624378,60.6700211 27.5302994,60.5875152 27.8345016,60.3072901 C28.1388268,60.0266961 28.290805,59.6752774 28.290805,59.2545094 C28.290805,59.1842994 28.2847799,58.5526556 28.2730988,57.3588401 C28.2610487,56.1650247 28.2553926,55.1235563 28.2553926,54.2349267 L27.4479164,54.3746089 C26.9330843,54.468919 26.2836113,54.5088809 25.4994975,54.4975686 C24.7157525,54.4866252 23.9021284,54.4044881 23.0597317,54.2517722 C22.2169661,54.1004088 21.4330982,53.749359 20.7075131,53.1993604 C19.982297,52.6493618 19.4674649,51.9294329 19.1631397,51.0406804 L18.8120898,50.2328353 C18.5780976,49.6950097 18.2097104,49.0975487 17.7064365,48.4426655 C17.2031625,47.7871675 16.6942324,47.3427912 16.1794003,47.108799 L15.9336039,46.9328437 C15.7698216,46.815909 15.6178435,46.6748743 15.4773006,46.511215 C15.3368806,46.3475556 15.2317501,46.1837734 15.1615401,46.0197452 C15.0912072,45.855594 15.1494901,45.7209532 15.3370036,45.6153308 C15.5245171,45.5097084 15.8633939,45.4584343 16.3551097,45.4584343 L17.0569635,45.5633189 C17.5250709,45.6571371 18.104088,45.9373622 18.7947525,46.4057156 C19.4850481,46.8737001 20.052507,47.4821045 20.4972521,48.230683 C21.0358155,49.1905062 21.6846737,49.9218703 22.4456711,50.4251443 C23.2060537,50.9284182 23.9727072,51.1796248 24.744894,51.1796248 C25.5170807,51.1796248 26.1840139,51.121096 26.7459396,51.0046532 C27.3072505,50.8875956 27.8338868,50.7116403 28.3256025,50.477771 C28.5362325,48.9090515 29.1097164,47.7039238 30.0455624,46.8615271 C28.7116959,46.721353 27.5124702,46.5102313 26.4472706,46.2295144 C25.3826858,45.9484285 24.2825656,45.4922482 23.1476478,44.8597436 C22.0121153,44.2280998 21.0701212,43.44374 20.3214198,42.5080169 C19.5725954,41.571802 18.9580429,40.3426971 18.4786232,38.821809 C17.9989575,37.300306 17.7590632,35.5451796 17.7590632,33.5559381 C17.7590632,30.7235621 18.6837199,28.3133066 20.5326645,26.3238191 C19.6665366,24.1944035 19.7483048,21.8072644 20.778215,19.1626478 C21.4569523,18.951772 22.4635002,19.1100211 23.7973667,19.6364115 C25.1314792,20.1630477 26.1082708,20.6141868 26.7287253,20.9882301 C27.3491798,21.3621504 27.8463057,21.6790175 28.2208409,21.9360032 C30.3978419,21.3277217 32.644438,21.0235195 34.9612442,21.0235195 C37.2780503,21.0235195 39.5251383,21.3277217 41.7022622,21.9360032 L43.0362517,21.0938524 C43.9484895,20.5319267 45.0257392,20.0169716 46.2654186,19.5488642 C47.5058357,19.0810026 48.4543466,18.9521409 49.1099676,19.1630167 C50.1627483,21.8077563 50.2565666,24.1947724 49.3901927,26.324188 C51.2390143,28.3136755 52.1640399,30.7245457 52.1640399,33.556307 C52.1640399,35.5455485 51.9232849,37.3062081 51.444357,38.8393922 C50.9648143,40.3728223 50.3449746,41.6006975 49.5845919,42.5256002 C48.8233486,43.4503799 47.8753296,44.2285916 46.7404118,44.8601125 C45.6052481,45.4921252 44.504759,45.9483056 43.4401742,46.2293914 C42.3750975,46.5104772 41.1758719,46.7217219 39.8420054,46.8621419 C41.0585683,47.9149226 41.6669728,49.5767225 41.6669728,51.846804 L41.6669728,59.2535257 C41.6669728,59.6742937 41.8132948,60.0255895 42.1061847,60.3063064 C42.3987058,60.5865315 42.8606653,60.6690374 43.492678,60.5516109 C48.922946,58.7498829 53.3521992,55.5026409 56.7806837,50.810008 C60.2087994,46.117744 61.923472,40.8347817 61.923472,34.9597686 C61.9222424,30.0695396 60.7162539,25.5590099 58.3067362,21.4281798 Z" id="Shape" fill="#FFFFFF" />
  </g>

  <g id="vsCode">
    <path d="M6,2h20c2.2,0,4,1.8,4,4v20c0,2.2-1.8,4-4,4H6c-2.2,0-4-1.8-4-4V6C2,3.8,3.8,2,6,2z" fill="#000000"/><path class="st0" d="M26,24l-4.9,2l-8.1-8l-5.1,4l-2-1V11l2-1l5.1,4l8-8L26,8V24z M15.7,16l5.3,4.1l0,0v-8.3L15.7,16L15.7,16z   M7.9,19.1L7.9,19.1L11,16l-3-3.1l0,0L7.9,19.1L7.9,19.1z" fill="#FFFFFF" />
  </g>

  <g id="js">
    <path d="M 11.714286,1 2.285714,1 C 1.575893,1 1,1.57589 1,2.28571 l 0,9.42858 C 1,12.42411 1.575893,13 2.285714,13 l 9.428572,0 C 12.424107,13 13,12.42411 13,11.71429 L 13,2.28571 C 13,1.57589 12.424107,1 11.714286,1 Z m -4.183929,9.35893 c 0,1.16786 -0.685714,1.70089 -1.684821,1.70089 -0.902679,0 -1.425,-0.46607 -1.692857,-1.03125 l 0.91875,-0.55446 c 0.176785,0.31339 0.3375,0.57857 0.725892,0.57857 0.369643,0 0.605358,-0.14464 0.605358,-0.70982 l 0,-3.83304 1.127678,0 0,3.84911 z m 2.667857,1.70089 c -1.047321,0 -1.725,-0.49821 -2.054464,-1.15178 L 9.0625,10.37768 c 0.241071,0.39375 0.557143,0.68571 1.111607,0.68571 0.466072,0 0.766072,-0.23303 0.766072,-0.55714 0,-0.38571 -0.305358,-0.52232 -0.822322,-0.75 L 9.836607,9.63571 C 9.022321,9.29018 8.483929,8.85357 8.483929,7.93482 c 0,-0.84643 0.645535,-1.48928 1.65,-1.48928 0.717857,0 1.232142,0.2491 1.601785,0.90267 l -0.878571,0.5625 C 10.664286,7.56518 10.455357,7.42857 10.13125,7.42857 c -0.329464,0 -0.538393,0.20893 -0.538393,0.48214 0,0.3375 0.208929,0.47411 0.69375,0.68572 l 0.28125,0.12053 c 0.958929,0.40983 1.497322,0.83036 1.497322,1.77322 0,1.0125 -0.798215,1.56964 -1.866965,1.56964 z" fill="#000000"/>
  </g>

  <g id="ts">
    <path fill-rule="evenodd" clip-rule="evenodd" d="M20 5H5V20H20V5ZM11.0769 18H9.82349V13.0444H8.02637V12.011H12.874V13.0444H11.0769V18ZM18.2893 16.2153C18.2893 17.4023 17.3679 18.1536 15.8738 18.1536C14.4419 18.1536 13.5371 17.4688 13.4666 16.4062L13.4624 16.3398H14.6702L14.6743 16.3813C14.72 16.8296 15.2056 17.1326 15.907 17.1326C16.5752 17.1326 17.0359 16.813 17.0359 16.3523V16.3481C17.0359 15.9539 16.7412 15.7339 15.9983 15.5803L15.3674 15.4517C14.1223 15.1985 13.5869 14.6174 13.5869 13.7085V13.7043C13.5869 12.592 14.5415 11.8574 15.8696 11.8574C17.2683 11.8574 18.0901 12.5962 18.1689 13.5964L18.1731 13.6504H16.9944L16.9861 13.6006C16.9155 13.1731 16.5005 12.8743 15.8696 12.8743C15.2512 12.8784 14.8403 13.1606 14.8403 13.6089V13.613C14.8403 14.0032 15.1309 14.2356 15.8364 14.3809L16.4714 14.5095C17.7373 14.771 18.2893 15.2773 18.2893 16.2112V16.2153Z" fill="#000000"/>
  </g>

  <g id="styledComponents">
    <path d="M16.214 6.762l-.075.391c-.116.741-.074.953.244 1.228l.307.254-.318 1.418c-.19.846-.423 1.555-.571 1.788-.127.201-.275.497-.307.656-.053.19-.233.381-.508.55-.243.138-.72.508-1.058.805-.27.243-.456.392-.557.456l-.33.261c-.106.17-.166.307-.189.411-.023.107-.01.178.024.23.033.05.09.085.168.107a.954.954 0 00.282.023 3 3 0 00.632-.112c.07-.019.125-.037.173-.053.074-.091.245-.263.548-.562.804-.793 1.111-1.227.794-1.11-.117.042-.064-.064.137-.276.424-.413.667-1.037 1.175-2.994.402-1.545.402-1.567.698-1.567.139 0 .532.024.532.024V6.762h-.902zm3.839 3.165c-.064 0-.17.096-.233.202-.116.19.021.306 1.767 1.396 1.037.657 1.873 1.217 1.852 1.26-.021.031-.868.582-1.883 1.217-1.842 1.142-1.852 1.153-1.683 1.386.212.275 0 .37 2.391-1.122L24 13.155v-.836l-1.937-1.196c-1.047-.656-1.957-1.185-2.01-1.196zm-16.085.117c-.053 0-.963.54-2.01 1.185L0 12.425v.836l1.947 1.217c1.08.666 1.99 1.217 2.032 1.217.042 0 .127-.096.212-.212.127-.201.02-.286-1.768-1.418C.72 12.996.54 12.848.71 12.732c.106-.074.91-.572 1.778-1.111 1.979-1.217 1.873-1.133 1.714-1.387-.063-.105-.17-.2-.233-.19zm8.684.023c-.292-.002-.92.443-2.8 1.978-.081.193-.088.326-.051.412.024.059.068.1.129.13.06.03.138.048.224.055.171.015.373-.012.536-.044l.11-.025a.386.386 0 01.144-.118c.116-.064.603-.508 1.09-.984.857-.868 1.058-1.26.709-1.387a.24.24 0 00-.09-.017zm2.196.603c-.257.007-.72.305-1.513.938-.398.323-.65.497-.785.533l-.524.414c-.197.36-.226.583-.174.706a.25.25 0 00.138.134.644.644 0 00.24.045 2.18 2.18 0 00.58-.085 3.466 3.466 0 00.291-.092l.029-.012.053-.028c.1-.129.33-.372.618-.652.91-.878 1.375-1.502 1.28-1.735-.043-.113-.117-.17-.233-.166zm-2.424 1.08c-.074.008-.24.136-.539.398-.432.382-.903.602-1.066.504a3.97 3.97 0 01-.114.024c-.166.033-.373.06-.558.045a.708.708 0 01-.252-.063.337.337 0 01-.168-.17c-.037-.09-.037-.202.005-.345l-.65.534-1.471 1.217V15.867l4.82-3.797a.41.41 0 01.016-.123c.037-.134.035-.202-.023-.196zm2.074.639c-.073 0-.195.103-.39.31-.265.283-.682.557-.903.613l-.034.018a2.191 2.191 0 01-.11.042c-.06.02-.138.044-.228.068-.18.049-.404.094-.604.089a.732.732 0 01-.275-.054.344.344 0 01-.184-.18c-.058-.139-.035-.334.092-.611L7.61 16.033v1.205h1.868l3.962-3.112c.103-.114.258-.27.467-.465.56-.519.687-.698.687-.963 0-.206-.023-.31-.096-.31zm.943 1.95l-.339.338c-.19.18-.529.402-.761.497l-.046.02-.003.005-.01.01c-.009.007-.013.008-.02.011a3.432 3.432 0 01-.282.093 3.058 3.058 0 01-.65.115 1.035 1.035 0 01-.31-.027.364.364 0 01-.218-.144c-.048-.074-.062-.173-.035-.295a1.11 1.11 0 01.095-.25l-3.197 2.526h4.252l.508-.582c.698-.814 1.016-1.396 1.016-1.894z" fill="#000000" />
  </g>

  <g id="text">
    <path fill-rule="evenodd" clip-rule="evenodd" d="M3.46447 3.46447C2 4.92893 2 7.28595 2 12C2 16.714 2 19.0711 3.46447 20.5355C4.92893 22 7.28595 22 12 22C16.714 22 19.0711 22 20.5355 20.5355C22 19.0711 22 16.714 22 12C22 7.28595 22 4.92893 20.5355 3.46447C19.0711 2 16.714 2 12 2C7.28595 2 4.92893 2 3.46447 3.46447ZM9.95197 6.25C9.52211 6.24993 9.12024 6.24986 8.79192 6.29891C8.42102 6.35432 8.04 6.4853 7.73542 6.82371C7.44103 7.15082 7.3371 7.54061 7.29204 7.91294C7.24993 8.26096 7.24996 8.69238 7.25 9.17954L7.25 9.75C7.25 10.1642 7.58579 10.5 8 10.5C8.41421 10.5 8.75 10.1642 8.75 9.75V9.22222C8.75 8.67931 8.75129 8.34011 8.78118 8.09313C8.7952 7.97725 8.81273 7.91048 8.8269 7.87221C8.83885 7.83993 8.84739 7.83046 8.85023 7.82731L8.85104 7.82637C8.8524 7.82473 8.8534 7.82353 8.86242 7.8194C8.87904 7.8118 8.92168 7.79617 9.01354 7.78245C9.21765 7.75196 9.50511 7.75 10 7.75H11.25V16.25H9.5C9.08579 16.25 8.75 16.5858 8.75 17C8.75 17.4142 9.08579 17.75 9.5 17.75H15C15.4142 17.75 15.75 17.4142 15.75 17C15.75 16.5858 15.4142 16.25 15 16.25H12.75V7.75H14C14.4949 7.75 14.7824 7.75196 14.9865 7.78245C15.0783 7.79617 15.121 7.8118 15.1376 7.8194C15.1466 7.82353 15.1476 7.82473 15.149 7.82637L15.1496 7.82716C15.1525 7.83031 15.1611 7.83993 15.1731 7.87221C15.1873 7.91048 15.2048 7.97725 15.2188 8.09313C15.2487 8.34011 15.25 8.67931 15.25 9.22222V9.75C15.25 10.1642 15.5858 10.5 16 10.5C16.4142 10.5 16.75 10.1642 16.75 9.75L16.75 9.17953C16.75 8.69238 16.7501 8.26096 16.708 7.91294C16.6629 7.54061 16.559 7.15082 16.2646 6.82371C15.96 6.4853 15.579 6.35432 15.2081 6.29891C14.8798 6.24986 14.4779 6.24993 14.048 6.25H9.95197Z" fill="#1C274C"/>
  </g>
  <g id="telegramm">
    <path d="M41.4193 7.30899C41.4193 7.30899 45.3046 5.79399 44.9808 9.47328C44.8729 10.9883 43.9016 16.2908 43.1461 22.0262L40.5559 39.0159C40.5559 39.0159 40.3401 41.5048 38.3974 41.9377C36.4547 42.3705 33.5408 40.4227 33.0011 39.9898C32.5694 39.6652 24.9068 34.7955 22.2086 32.4148C21.4531 31.7655 20.5897 30.4669 22.3165 28.9519L33.6487 18.1305C34.9438 16.8319 36.2389 13.8019 30.8426 17.4812L15.7331 27.7616C15.7331 27.7616 14.0063 28.8437 10.7686 27.8698L3.75342 25.7055C3.75342 25.7055 1.16321 24.0823 5.58815 22.459C16.3807 17.3729 29.6555 12.1786 41.4193 7.30899Z" fill="#0088cc"/>
  </g>
  <g id="vk">
    <path d="M25.217 22.402h-2.179c-0.825 0-1.080-0.656-2.562-2.158-1.291-1.25-1.862-1.418-2.179-1.418-0.445 0-0.572 0.127-0.572 0.741v1.968c0 0.53-0.169 0.847-1.566 0.847-2.818-0.189-5.24-1.726-6.646-3.966l-0.021-0.035c-1.632-2.027-2.835-4.47-3.43-7.142l-0.022-0.117c0-0.317 0.127-0.614 0.741-0.614h2.179c0.55 0 0.762 0.254 0.975 0.846 1.078 3.112 2.878 5.842 3.619 5.842 0.275 0 0.402-0.127 0.402-0.825v-3.219c-0.085-1.482-0.868-1.608-0.868-2.137 0.009-0.283 0.241-0.509 0.525-0.509 0.009 0 0.017 0 0.026 0.001l-0.001-0h3.429c0.466 0 0.635 0.254 0.635 0.804v4.34c0 0.465 0.212 0.635 0.339 0.635 0.275 0 0.509-0.17 1.016-0.677 1.054-1.287 1.955-2.759 2.642-4.346l0.046-0.12c0.145-0.363 0.493-0.615 0.9-0.615 0.019 0 0.037 0.001 0.056 0.002l-0.003-0h2.179c0.656 0 0.805 0.337 0.656 0.804-0.874 1.925-1.856 3.579-2.994 5.111l0.052-0.074c-0.232 0.381-0.317 0.55 0 0.975 0.232 0.317 0.995 0.973 1.503 1.566 0.735 0.727 1.351 1.573 1.816 2.507l0.025 0.055c0.212 0.612-0.106 0.93-0.72 0.93zM20.604 1.004h-9.207c-8.403 0-10.392 1.989-10.392 10.392v9.207c0 8.403 1.989 10.392 10.392 10.392h9.207c8.403 0 10.392-1.989 10.392-10.392v-9.207c0-8.403-2.011-10.392-10.392-10.392z" fill="#4C75A3"/>
  </g>
</svg>