<svg width="38" height="38" viewBox="0 0 38 38" fill="none" xmlns="http://www.w3.org/2000/svg">
<path d="M31.4226 0L31.1487 1.41829C30.725 4.10615 30.8784 4.87514 32.0398 5.87266L33.161 6.794L31.9996 11.9376C31.3057 15.0063 30.4548 17.5781 29.9143 18.4233C29.4505 19.1523 28.91 20.226 28.7931 20.8028C28.5995 21.492 27.9421 22.1848 26.9378 22.7978C26.0504 23.2984 24.3083 24.6405 23.0739 25.7178C22.0878 26.5993 21.4086 27.1397 21.0397 27.3719L19.8345 28.3186C19.4474 28.9353 19.2283 29.4322 19.1443 29.8095C19.0603 30.1976 19.1077 30.4551 19.2319 30.6438C19.3524 30.8251 19.5606 30.9521 19.8455 31.0319C20.1827 31.1104 20.5298 31.1385 20.8754 31.1153C21.6571 31.0623 22.4309 30.9261 23.1835 30.709C23.4391 30.6401 23.64 30.5748 23.8153 30.5168C24.0855 30.1867 24.71 29.5628 25.8166 28.4782C28.7529 25.6018 29.8741 24.0275 28.7164 24.4519C28.2891 24.6042 28.4827 24.2197 29.2167 23.4507C30.7652 21.9527 31.6527 19.6892 33.5079 12.5905C34.9761 6.98625 34.9761 6.90645 36.0571 6.90645C36.5647 6.90645 38 6.99351 38 6.99351V0H34.7058H31.4226ZM18.4138 11.9884C17.3474 11.9811 15.0539 13.5953 8.18799 19.1632C7.89217 19.8633 7.8666 20.3457 8.00173 20.6577C8.08938 20.8717 8.25007 21.0204 8.47285 21.1292C8.69198 21.2381 8.97684 21.3034 9.29092 21.3288C9.91543 21.3832 10.6531 21.2852 11.2484 21.1691L11.6502 21.0785C11.7877 20.8953 11.9682 20.7484 12.1761 20.6504C12.5997 20.4183 14.3783 18.8077 16.1569 17.0811C19.2867 13.9326 20.0208 12.5107 18.7462 12.05C18.6416 12.0087 18.5264 11.9878 18.4138 11.9884ZM26.4338 14.1756C25.4952 14.201 23.8043 15.282 20.9082 17.5781C19.4547 18.7497 18.5344 19.3809 18.0413 19.5115L16.1276 21.0132C15.4082 22.319 15.3023 23.1279 15.4922 23.5741C15.5397 23.6841 15.6087 23.7837 15.6952 23.8672C15.7817 23.9506 15.884 24.0162 15.9962 24.0601C16.2752 24.1696 16.5727 24.225 16.8727 24.2234C17.5895 24.2158 18.302 24.1121 18.9909 23.915C19.3499 23.8194 19.7045 23.708 20.0536 23.5813L20.1595 23.5378L20.3531 23.4362C20.7183 22.9683 21.5583 22.0869 22.6101 21.0712C25.9335 17.8864 27.6317 15.6229 27.2848 14.7778C27.1277 14.3679 26.8575 14.1611 26.4338 14.1756ZM17.5812 18.0932C17.3109 18.1222 16.7047 18.5865 15.6127 19.5368C14.035 20.9225 12.3149 21.7205 11.7196 21.365C11.5812 21.3961 11.4424 21.4251 11.3032 21.4521C10.697 21.5718 9.94099 21.6697 9.26536 21.6153C8.94702 21.5962 8.63499 21.5187 8.34503 21.3868C8.07153 21.2626 7.85327 21.0432 7.73148 20.7701C7.59635 20.4437 7.59635 20.0374 7.74974 19.5187L5.37588 21.4557L0.00365287 25.8702V33.0269L17.6067 19.2539C17.6033 19.1031 17.623 18.9527 17.6652 18.8077C17.8003 18.3217 17.793 18.075 17.5812 18.0968V18.0932ZM25.1556 20.411C24.889 20.411 24.4434 20.7847 23.7313 21.5355C22.7635 22.562 21.2406 23.5559 20.4334 23.7591L20.3093 23.8244C20.1768 23.8787 20.0428 23.9295 19.9075 23.9767C19.6884 24.0493 19.4036 24.1363 19.0749 24.2234C18.4175 24.4011 17.5994 24.5643 16.869 24.5462C16.5247 24.5458 16.1836 24.4793 15.8647 24.3503C15.5641 24.2273 15.3232 23.9932 15.1927 23.6974C14.9809 23.1932 15.0649 22.4859 15.5287 21.4811L0 33.6291V38H6.82211L21.2917 26.7117C21.6679 26.2982 22.2339 25.7323 22.9972 25.025C25.0424 23.1424 25.5062 22.4931 25.5062 21.5319C25.5062 20.7846 25.4222 20.4074 25.1556 20.4074V20.411ZM28.5995 27.4843L27.3615 28.7104C26.6676 29.3633 25.4295 30.1686 24.5822 30.5132L24.4142 30.5857L24.4033 30.6039L24.3667 30.6401C24.3339 30.6655 24.3193 30.6691 24.2937 30.68C23.9555 30.8072 23.6119 30.9197 23.2638 31.0174C22.49 31.2411 21.6941 31.3809 20.89 31.4345C20.5098 31.4587 20.1281 31.4257 19.7578 31.3366C19.4365 31.2663 19.1528 31.0802 18.9617 30.8142C18.7864 30.5458 18.7352 30.1867 18.8338 29.7442C18.9123 29.4291 19.0288 29.1246 19.1808 28.8373L7.50505 38H23.0337L24.889 35.8889C27.4382 32.9362 28.5995 30.8251 28.5995 29.0187V27.4843Z" fill="#7572D5"/>
</svg>
