<svg width="39" height="38" viewBox="0 0 39 38" fill="none" xmlns="http://www.w3.org/2000/svg">
<path d="M0 19V38H39V0H0V19ZM31.4291 17.4863C32.4204 17.727 33.1744 18.1561 33.8682 18.8559C34.2274 19.2296 34.7604 19.9104 34.8026 20.0751C34.8156 20.1226 33.1191 21.2309 32.0921 21.8532C32.0548 21.8769 31.9052 21.7202 31.7395 21.4795C31.2358 20.767 30.7109 20.4598 29.9065 20.406C28.7235 20.3268 27.963 20.9301 27.9695 21.9371C27.9587 22.1847 28.0159 22.4307 28.1352 22.6496C28.3952 23.1737 28.8795 23.4888 30.394 24.1268C33.1874 25.2985 34.3817 26.0696 35.1244 27.1668C35.9531 28.3908 36.14 30.3462 35.5761 31.7997C34.9586 33.3798 33.423 34.4533 31.2618 34.808C30.5939 34.9236 29.0095 34.9062 28.2913 34.7795C26.7248 34.5072 25.2395 33.7535 24.323 32.7639C23.9639 32.3792 23.2635 31.3706 23.3074 31.2993C23.3253 31.274 23.4861 31.1774 23.6649 31.0761C23.8404 30.9795 24.4953 30.6106 25.1144 30.2607L26.2356 29.6273L26.4713 29.9662C26.7995 30.4538 27.5161 31.1236 27.95 31.3468C29.1948 31.9865 30.9026 31.8963 31.7444 31.16C31.9136 31.0211 32.0476 30.8459 32.1359 30.6481C32.2241 30.4503 32.2642 30.2354 32.253 30.02C32.253 29.5798 32.1961 29.3867 31.9605 29.0542C31.6582 28.633 31.0391 28.2783 29.2809 27.5342C27.2691 26.6903 26.403 26.1662 25.61 25.3333C25.1151 24.7837 24.7495 24.1352 24.5391 23.4333C24.3913 22.8966 24.3539 21.5508 24.4709 21.0093C24.8853 19.114 26.3526 17.7951 28.47 17.4024C29.1574 17.2758 30.7547 17.3232 31.4291 17.4863ZM22.2739 19.0728L22.2869 20.6293H17.2087V34.6829H13.6175V20.6293H8.54425V19.1029C8.54425 18.2574 8.56213 17.5513 8.5865 17.5354C8.606 17.5101 11.6951 17.4974 15.4391 17.5038L22.256 17.5228L22.2739 19.0728Z" fill="#7572D5"/>
</svg>
