<svg width="800px" height="800px" viewBox="0 0 24 24" fill="none" xmlns="http://www.w3.org/2000/svg">

  <g id="css">
    <path display="inline" d="M483.111,0.501l-42.59,461.314l-184.524,49.684L71.47,461.815L28.889,0.501H483.111z M397.29,94.302
      H255.831H111.866l6.885,55.708h137.08h7.7l-7.7,3.205l-132.07,55.006l4.38,54.453l127.69,0.414l68.438,0.217l-4.381,72.606
      l-64.058,18.035v-0.057l-0.525,0.146l-61.864-15.617l-3.754-45.07h-0.205H132.1h-0.202l7.511,87.007l116.423,34.429v-0.062
      l0.21,0.062l115.799-33.802l15.021-172.761h-131.03h-0.323l0.323-0.14l135.83-58.071L397.29,94.302z" fill="#000000"/>
  </g>
    
  <g id="git">
    <path fill-rule="evenodd" clip-rule="evenodd" d="M13.4142 3.82843C12.6332 3.04738 11.3668 3.04738 10.5858 3.82843L9.91421 4.5L11.482 6.06774C11.6472 6.02356 11.8208 6 12 6C13.1046 6 14 6.89543 14 8C14 8.17916 13.9764 8.35282 13.9323 8.51804L15.982 10.5677C16.1472 10.5236 16.3208 10.5 16.5 10.5C17.6046 10.5 18.5 11.3954 18.5 12.5C18.5 13.6046 17.6046 14.5 16.5 14.5C15.3954 14.5 14.5 13.6046 14.5 12.5C14.5 12.3208 14.5236 12.1472 14.5677 11.982L13 10.4142V15.2676C13.5978 15.6134 14 16.2597 14 17C14 18.1046 13.1046 19 12 19C10.8954 19 10 18.1046 10 17C10 16.2597 10.4022 15.6134 11 15.2676V9.73244C10.4022 9.38663 10 8.74028 10 8C10 7.82084 10.0236 7.64718 10.0677 7.48196L8.5 5.91421L3.82843 10.5858C3.04738 11.3668 3.04738 12.6332 3.82843 13.4142L10.5858 20.1716C11.3668 20.9526 12.6332 20.9526 13.4142 20.1716L20.1716 13.4142C20.9526 12.6332 20.9526 11.3668 20.1716 10.5858L13.4142 3.82843ZM9.17157 2.41421C10.7337 0.852115 13.2663 0.852119 14.8284 2.41422L21.5858 9.17157C23.1479 10.7337 23.1479 13.2663 21.5858 14.8284L14.8284 21.5858C13.2663 23.1479 10.7337 23.1479 9.17157 21.5858L2.41421 14.8284C0.852115 13.2663 0.852119 10.7337 2.41422 9.17157L9.17157 2.41421Z" fill="#000000"/>
  </g>

  <g id="html">
    <path d="M19.4350881,7485 L19.4279481,7485 L10.8119794,7485 L11.0180201,7487 L19.2300674,7487 C19.109707,7488.752 18.7455658,7492.464 18.6119454,7494.153 L13.99949,7495.451 L13.99949,7495.455 L13.98929,7495.46 L9.37377458,7493.836 L9.05757353,7490 L11.3199411,7490 L11.4800816,7492.063 L13.99337,7493 L13.99949,7493 L16.5086984,7492.1 L16.7667592,7489 L8.95659319,7489 C8.91885306,7488.599 8.43333144,7483.392 8.34867116,7483 L19.6370488,7483 C19.5738086,7483.66 19.5095484,7484.338 19.4350881,7485 L19.4350881,7485 Z M5,7479 L6.63812546,7497.148 L13.98929,7499 L21.3598345,7497.111 L23,7479 L5,7479 Z" id="html-[#124]" fill="#000000" />
  </g>

  <g id="js">
    <path display="inline" d="M218.195,257.521c0,64.719,4.624,119.1-27.309,151.283c-17.961,18.105-46.301,28.772-81.17,28.772
      c-57.192,0-88.947-27.862-109.215-66.416c19.512-12.459,39.452-24.502,59.775-36.154c8.292,23.188,36.291,49.258,67.888,33.21
      c20.027-10.18,17.715-41.04,17.715-74.537c0-69.549,0-149.78,0-212.528c-0.063-1.044-0.125-2.087,0.732-2.214
      c23.866,0,47.728,0,71.585,0C218.195,134.832,218.195,198.069,218.195,257.521z M399.727,215.462
      c-18.247-7.814-40.928-17.058-46.488-33.952c-6.233-18.934,4.396-34.533,16.231-39.841c26.023-11.688,57.038,7.556,63.463,27.301
      c19.583-11.657,39.103-23.384,56.826-36.896c-20.826-34.584-51.354-59.342-107.003-57.561
      c-30.64,0.979-53.657,10.652-70.841,25.088c-16.771,14.085-29.721,33.854-31.737,61.989
      c-6.025,84.212,56.988,105.708,110.695,129.137c16.93,7.385,35.751,14.842,43.54,29.517c16.061,30.282-12.389,50.26-36.898,52.397
      c-39.336,3.427-65.858-19.587-81.175-43.54c-19.133,11.86-39.938,22.045-58.298,34.683c25.537,44.908,67.409,73.98,132.831,73.793
      c66.74-0.188,116.219-32.366,120.281-92.977C516.677,262.216,454.956,239.105,399.727,215.462z" fill="#000000"/>
  </g>

  <g id="ts">
    <path fill-rule="evenodd" clip-rule="evenodd" d="M20 5H5V20H20V5ZM11.0769 18H9.82349V13.0444H8.02637V12.011H12.874V13.0444H11.0769V18ZM18.2893 16.2153C18.2893 17.4023 17.3679 18.1536 15.8738 18.1536C14.4419 18.1536 13.5371 17.4688 13.4666 16.4062L13.4624 16.3398H14.6702L14.6743 16.3813C14.72 16.8296 15.2056 17.1326 15.907 17.1326C16.5752 17.1326 17.0359 16.813 17.0359 16.3523V16.3481C17.0359 15.9539 16.7412 15.7339 15.9983 15.5803L15.3674 15.4517C14.1223 15.1985 13.5869 14.6174 13.5869 13.7085V13.7043C13.5869 12.592 14.5415 11.8574 15.8696 11.8574C17.2683 11.8574 18.0901 12.5962 18.1689 13.5964L18.1731 13.6504H16.9944L16.9861 13.6006C16.9155 13.1731 16.5005 12.8743 15.8696 12.8743C15.2512 12.8784 14.8403 13.1606 14.8403 13.6089V13.613C14.8403 14.0032 15.1309 14.2356 15.8364 14.3809L16.4714 14.5095C17.7373 14.771 18.2893 15.2773 18.2893 16.2112V16.2153Z" fill="#121923"/>
  </g>

  <g id="react">
    <path d="M12,10.11A1.87,1.87,0,1,1,10.13,12,1.88,1.88,0,0,1,12,10.11M7.37,20c.63.38,2-.2,3.6-1.7a24.22,24.22,0,0,1-1.51-1.9A22.7,22.7,0,0,1,7.06,16c-.51,2.14-.32,3.61.31,4m.71-5.74-.29-.51a7.91,7.91,0,0,0-.29.86c.27.06.57.11.88.16l-.3-.51m6.54-.76.81-1.5-.81-1.5c-.3-.53-.62-1-.91-1.47C13.17,9,12.6,9,12,9s-1.17,0-1.71,0c-.29.47-.61.94-.91,1.47L8.57,12l.81,1.5c.3.53.62,1,.91,1.47.54,0,1.11,0,1.71,0s1.17,0,1.71,0c.29-.47.61-.94.91-1.47M12,6.78c-.19.22-.39.45-.59.72h1.18c-.2-.27-.4-.5-.59-.72m0,10.44c.19-.22.39-.45.59-.72H11.41c.2.27.4.5.59.72M16.62,4c-.62-.38-2,.2-3.59,1.7a24.22,24.22,0,0,1,1.51,1.9,22.7,22.7,0,0,1,2.4.36c.51-2.14.32-3.61-.32-4m-.7,5.74.29.51a7.91,7.91,0,0,0,.29-.86c-.27-.06-.57-.11-.88-.16l.3.51m1.45-7c1.47.84,1.63,3.05,1,5.63,2.54.75,4.37,2,4.37,3.68s-1.83,2.93-4.37,3.68c.62,2.58.46,4.79-1,5.63s-3.45-.12-5.37-1.95c-1.92,1.83-3.91,2.79-5.38,1.95s-1.62-3-1-5.63c-2.54-.75-4.37-2-4.37-3.68S3.08,9.07,5.62,8.32c-.62-2.58-.46-4.79,1-5.63s3.46.12,5.38,1.95c1.92-1.83,3.91-2.79,5.37-1.95M17.08,12A22.51,22.51,0,0,1,18,14.26c2.1-.63,3.28-1.53,3.28-2.26S20.07,10.37,18,9.74A22.51,22.51,0,0,1,17.08,12M6.92,12A22.51,22.51,0,0,1,6,9.74c-2.1.63-3.28,1.53-3.28,2.26S3.93,13.63,6,14.26A22.51,22.51,0,0,1,6.92,12m9,2.26-.3.51c.31,0,.61-.1.88-.16a7.91,7.91,0,0,0-.29-.86l-.29.51M13,18.3c1.59,1.5,3,2.08,3.59,1.7s.83-1.82.32-4a22.7,22.7,0,0,1-2.4.36A24.22,24.22,0,0,1,13,18.3M8.08,9.74l.3-.51c-.31,0-.61.1-.88.16a7.91,7.91,0,0,0,.29.86l.29-.51M11,5.7C9.38,4.2,8,3.62,7.37,4s-.82,1.82-.31,4a22.7,22.7,0,0,1,2.4-.36A24.22,24.22,0,0,1,11,5.7Z" fill="#000000" />
  </g>

  <g id="redux">
    <path d="m17.54 16.745c.893-.089 1.585-.837 1.585-1.746 0-.036-.001-.072-.003-.108v.005c-.047-.963-.834-1.726-1.801-1.736h-.065c-.968.036-1.739.829-1.739 1.802 0 .022 0 .044.001.067v-.003c.026.473.22.897.522 1.217l-.001-.001c-1.187 2.214-3.001 3.96-5.204 5.031l-.069.03c-1.192.66-2.614 1.048-4.127 1.048-.383 0-.761-.025-1.13-.073l.044.005c-1.361-.131-2.533-.844-3.277-1.884l-.009-.014c-.537-.755-.858-1.695-.858-2.711 0-.837.218-1.623.601-2.305l-.012.024c.547-1.036 1.293-1.898 2.194-2.562l.021-.014c-.171-.453-.324-.999-.432-1.56l-.011-.066c-4.683 3.349-4.208 7.93-2.786 10.095 1.243 1.586 3.159 2.596 5.311 2.596.098 0 .195-.002.292-.006h-.014c.035.001.077.001.119.001.647 0 1.276-.075 1.88-.216l-.056.011c4.008-.734 7.29-3.317 8.974-6.814l.032-.074z"/>
    <path d="m23.18 12.799c-2.403-2.74-5.91-4.46-9.82-4.46-.119 0-.239.002-.357.005h.018-.538c-.283-.567-.86-.95-1.526-.95-.02 0-.039 0-.059.001h.003-.039c-.966.014-1.744.8-1.744 1.768 0 .029.001.057.002.085v-.004c.045.963.832 1.728 1.8 1.738h.079c.714-.028 1.317-.472 1.577-1.094l.004-.012h.585c2.554.003 4.924.787 6.884 2.128l-.042-.027c1.531.98 2.713 2.388 3.392 4.055l.021.058c.26.542.411 1.178.411 1.849 0 .71-.169 1.38-.47 1.972l.011-.025c-.777 1.586-2.379 2.658-4.231 2.658-.068 0-.135-.001-.202-.004h.01c-1.137-.024-2.21-.274-3.183-.707l.052.021c-.379.316-1.011.836-1.47 1.153 1.214.596 2.638.959 4.143.994h.012c.059.002.128.003.197.003 2.552 0 4.787-1.355 6.026-3.384l.018-.031c.342-.811.54-1.753.54-2.742 0-1.98-.796-3.774-2.085-5.079l.001.001-.015.032z"/>
    <path d="m6.844 17.316c.044.964.833 1.731 1.803 1.738h.064c.968-.033 1.741-.827 1.741-1.8 0-.99-.799-1.794-1.788-1.801h-.067c-.01-.001-.022-.001-.033-.001-.073 0-.143.011-.209.033l.005-.001c-1.07-1.741-1.703-3.85-1.703-6.107 0-.364.016-.724.049-1.079l-.003.046c.091-1.906.791-3.633 1.907-5.007l-.012.016c.991-1.071 2.387-1.753 3.944-1.803h.009c3.412-.064 4.835 4.188 4.945 5.878l1.582.473c-.368-5.181-3.59-7.901-6.671-7.901-3.132.163-5.731 2.27-6.622 5.131l-.014.052c-.438 1.262-.692 2.716-.692 4.229 0 2.588.741 5.003 2.021 7.044l-.032-.055c-.143.216-.228.481-.228.766 0 .053.003.105.009.156l-.001-.006z" fill="#000000"/>
  </g>
  <g id="sass">
    <path d="m27.533 13.796c.039-.001.085-.002.132-.002.834 0 1.623.194 2.323.54l-.031-.014c.638.311 1.162.771 1.541 1.335l.009.014c.299.436.477.975.477 1.555 0 .042-.001.084-.003.125v-.006c-.031.579-.294 1.09-.698 1.448l-.002.002c-.221.217-.488.387-.785.495l-.015.005q-.25.05-.275-.075t.225-.275c.452-.274.779-.716.898-1.237l.003-.013c.003-.042.005-.091.005-.141 0-.311-.074-.605-.205-.865l.005.011c-.217-.453-.541-.825-.94-1.094l-.01-.006c-.597-.384-1.313-.636-2.083-.699l-.016-.001c-.262-.039-.564-.061-.872-.061-.801 0-1.566.151-2.27.426l.042-.015c.145.339.236.732.249 1.144v.005c-.016.845-.47 1.58-1.145 1.99l-.011.006c-.31.22-.664.413-1.041.563l-.035.012c-.229.112-.498.177-.782.177-.033 0-.065-.001-.097-.003h.005q-.949-.199-.45-1.65c.145-.421.348-.786.605-1.107l-.006.007c.329-.43.69-.807 1.089-1.141l.011-.009-.098-.146c-.183-.312-.351-.675-.486-1.054l-.014-.046q-.15-.5-.25-.949l-.05-.35-.5.949q-.65 1.2-1.25 2.099l-.15.25c.168.408.292.881.348 1.375l.002.025c.004.047.006.103.006.159 0 .758-.374 1.428-.948 1.837l-.007.005c-.274.169-.601.344-.94.5l-.06.025c-.353.153-.762.253-1.191.275h-.009c-.033.002-.072.004-.111.004-.25 0-.487-.057-.699-.158l.01.004c-.127-.109-.207-.269-.207-.448 0-.091.021-.178.058-.255l-.002.004c.4-.561.794-1.049 1.213-1.515l-.013.015 1.1-1.399-.199-.45c-.16-.294-.313-.641-.436-1.001l-.014-.048q-.15-.5-.25-.949l-.05-.35-.5 1.2q-.599 1.399-1.1 2.399-.747 1.5-1.25 2.3l-.1.15q-.599.949-1.15.949t-.747-.7c-.096-.344-.152-.739-.152-1.147 0-.036 0-.072.001-.108v.005l.1-.7v.05q-.4.949-.8 1.749c-.177.346-.359.641-.563.919l.013-.019c-.206.216-.496.35-.817.35-.003 0-.005 0-.008 0-.021.002-.045.002-.069.002-.253 0-.483-.096-.657-.253l.001.001c-.349-.358-.608-.805-.742-1.304l-.005-.021c-.164-.455-.258-.981-.258-1.529 0-.071.002-.141.005-.21v.01c.079-.796.238-1.525.471-2.22l-.021.071-1.799 1.05v.05c.261.542.414 1.178.414 1.85 0 .123-.005.245-.015.365l.001-.016c-.053 1.03-.382 1.973-.913 2.77l.013-.02c-.557.884-1.36 1.567-2.314 1.962l-.033.012c-.537.241-1.165.382-1.825.382-.418 0-.824-.056-1.208-.162l.032.007c-.318-.107-.578-.319-.743-.593l-.003-.006c-.233-.338-.38-.751-.403-1.196v-.006c-.011-.101-.017-.218-.017-.337 0-.513.117-.999.326-1.432l-.009.02c.574-.979 1.368-1.772 2.316-2.33l.03-.016c.671-.465 1.442-.916 2.247-1.309l.106-.047.25-.15q-.45-.35-1.65-1.2c-1.069-.716-1.998-1.439-2.874-2.221l.025.022c-.847-.729-1.464-1.703-1.741-2.812l-.008-.038c-.026-.154-.041-.331-.041-.511 0-.564.145-1.094.399-1.555l-.008.017c.56-1.204 1.336-2.219 2.288-3.035l.012-.01c1.03-.973 2.196-1.82 3.462-2.506l.087-.043c1.131-.653 2.452-1.26 3.829-1.747l.17-.052c1.279-.468 2.756-.742 4.296-.747h.002c.07-.002.153-.004.236-.004 1.241 0 2.415.287 3.459.798l-.046-.021c.9.41 1.574 1.182 1.844 2.126l.006.024c.083.322.13.692.13 1.073 0 .632-.131 1.234-.366 1.78l.011-.029c-.428 1.037-1.037 1.92-1.797 2.647l-.003.003c-.77.763-1.693 1.373-2.718 1.78l-.055.019c-1.074.461-2.321.751-3.63.799l-.019.001c-.192.022-.414.034-.639.034-.592 0-1.163-.085-1.703-.244l.043.011c-.483-.154-.9-.393-1.254-.703l.004.003c-.248-.202-.45-.451-.594-.734l-.006-.013q-.15-.4-.025-.475t.175-.025l.25.25c.279.259.612.463.98.593l.02.006c.506.176 1.09.278 1.697.278.195 0 .387-.01.576-.031l-.023.002c1.618-.191 3.077-.743 4.336-1.573l-.037.023c1.064-.633 1.925-1.503 2.531-2.54l.018-.034c.301-.442.481-.988.481-1.576 0-.361-.068-.707-.192-1.025l.007.019c-.374-.591-.979-1.007-1.685-1.122l-.014-.002c-.548-.135-1.178-.213-1.825-.213-.521 0-1.031.05-1.524.146l.05-.008c-1.687.304-3.195.825-4.586 1.541l.091-.043q-6.148 3.1-6.349 6.349v.049c0 .873.343 1.666.902 2.252l-.001-.001c.637.708 1.341 1.333 2.11 1.873l.039.026c.701.524 1.321 1.065 1.898 1.649l.001.002.1.1 3.2-1.749c.365-.528.804-.974 1.308-1.334l.016-.011c.4-.336.908-.555 1.465-.599l.009-.001c.02-.002.043-.002.067-.002.373 0 .693.225.831.547l.002.006c.105.235.166.51.166.799 0 .088-.006.175-.017.261l.001-.01-.097.493.15-.1c.104-.079.235-.126.377-.126.09 0 .175.019.252.053l-.004-.002c.192.05.331.222.331.426 0 .035-.004.069-.012.102l.001-.003-.15.55q-.45 1.799-.599 2.599c-.05.173-.078.372-.078.578 0 .043.001.085.004.127v-.006q.025.3.075.3t.199-.3l.15-.35q.05 0 0 .05l.55-1.15q1.95-4.298 2.099-4.8l.3-.949q.05-.1.4-.199c.237-.064.508-.101.788-.101.023 0 .046 0 .068.001h-.003q.7 0 .7.35l-.05.25c-.112.308-.223.693-.309 1.087l-.011.063c-.02.129-.032.277-.032.429 0 .202.02.399.059.59l-.003-.019.05.199c.102.417.257.783.46 1.117l-.01-.017q.599-.999 1.15-2.049c.29-.483.56-1.043.777-1.629l.023-.07c.075-.377.161-.695.266-1.005l-.016.056q.05-.15.427-.225c.238-.048.511-.075.79-.075h.036-.002q.7 0 .747.35l-.1.199c-.119.336-.223.74-.293 1.155l-.006.045c-.009.097-.015.209-.015.323 0 .239.024.473.069.699l-.004-.023v.199c.115.436.286.819.51 1.166l-.01-.016.15.35c.835-.41 1.817-.65 2.855-.65h.039-.002zm-21.439 7.253c.695-.718 1.124-1.698 1.124-2.778 0-.417-.064-.819-.182-1.197l.008.028-.8.5c-.816.465-1.522.984-2.161 1.574l.008-.007c-.485.446-.843 1.023-1.019 1.674l-.006.025q-.225.925.225 1.2c.183.084.398.133.623.133.246 0 .479-.058.684-.162l-.009.004c.594-.216 1.097-.559 1.497-.998l.003-.003zm6.697-4.604q.25-.65.55-1.55.4-1.2.275-1.399t-.475-.05c-.278.135-.511.32-.697.547l-.003.004c-.208.263-.406.557-.582.866l-.018.034c-.202.331-.373.712-.492 1.116l-.009.034c-.193.523-.305 1.128-.305 1.758 0 .085.002.169.006.253v-.012q.05.999.32 1.075t.625-.725c.229-.413.433-.893.585-1.396l.014-.054q.149-.354.204-.501zm5.546 2.65c.693-.311 1.181-.966 1.249-1.741l.001-.008v-.05l-.55.7-.999 1.1c-.015.012-.025.03-.025.05 0 .02.01.038.024.05q.048.049.3-.1zm4.299-.95c.756-.216 1.3-.901 1.3-1.712 0-.013 0-.026 0-.039v.002c-.01-.2-.046-.388-.105-.566l.004.015c-.389.346-.708.76-.939 1.227l-.011.023q-.451.899-.252 1.048z" fill="#000000"/>
  </g>

  <g id="styledComponents">
    <path d="M16.214 6.762l-.075.391c-.116.741-.074.953.244 1.228l.307.254-.318 1.418c-.19.846-.423 1.555-.571 1.788-.127.201-.275.497-.307.656-.053.19-.233.381-.508.55-.243.138-.72.508-1.058.805-.27.243-.456.392-.557.456l-.33.261c-.106.17-.166.307-.189.411-.023.107-.01.178.024.23.033.05.09.085.168.107a.954.954 0 00.282.023 3 3 0 00.632-.112c.07-.019.125-.037.173-.053.074-.091.245-.263.548-.562.804-.793 1.111-1.227.794-1.11-.117.042-.064-.064.137-.276.424-.413.667-1.037 1.175-2.994.402-1.545.402-1.567.698-1.567.139 0 .532.024.532.024V6.762h-.902zm3.839 3.165c-.064 0-.17.096-.233.202-.116.19.021.306 1.767 1.396 1.037.657 1.873 1.217 1.852 1.26-.021.031-.868.582-1.883 1.217-1.842 1.142-1.852 1.153-1.683 1.386.212.275 0 .37 2.391-1.122L24 13.155v-.836l-1.937-1.196c-1.047-.656-1.957-1.185-2.01-1.196zm-16.085.117c-.053 0-.963.54-2.01 1.185L0 12.425v.836l1.947 1.217c1.08.666 1.99 1.217 2.032 1.217.042 0 .127-.096.212-.212.127-.201.02-.286-1.768-1.418C.72 12.996.54 12.848.71 12.732c.106-.074.91-.572 1.778-1.111 1.979-1.217 1.873-1.133 1.714-1.387-.063-.105-.17-.2-.233-.19zm8.684.023c-.292-.002-.92.443-2.8 1.978-.081.193-.088.326-.051.412.024.059.068.1.129.13.06.03.138.048.224.055.171.015.373-.012.536-.044l.11-.025a.386.386 0 01.144-.118c.116-.064.603-.508 1.09-.984.857-.868 1.058-1.26.709-1.387a.24.24 0 00-.09-.017zm2.196.603c-.257.007-.72.305-1.513.938-.398.323-.65.497-.785.533l-.524.414c-.197.36-.226.583-.174.706a.25.25 0 00.138.134.644.644 0 00.24.045 2.18 2.18 0 00.58-.085 3.466 3.466 0 00.291-.092l.029-.012.053-.028c.1-.129.33-.372.618-.652.91-.878 1.375-1.502 1.28-1.735-.043-.113-.117-.17-.233-.166zm-2.424 1.08c-.074.008-.24.136-.539.398-.432.382-.903.602-1.066.504a3.97 3.97 0 01-.114.024c-.166.033-.373.06-.558.045a.708.708 0 01-.252-.063.337.337 0 01-.168-.17c-.037-.09-.037-.202.005-.345l-.65.534-1.471 1.217V15.867l4.82-3.797a.41.41 0 01.016-.123c.037-.134.035-.202-.023-.196zm2.074.639c-.073 0-.195.103-.39.31-.265.283-.682.557-.903.613l-.034.018a2.191 2.191 0 01-.11.042c-.06.02-.138.044-.228.068-.18.049-.404.094-.604.089a.732.732 0 01-.275-.054.344.344 0 01-.184-.18c-.058-.139-.035-.334.092-.611L7.61 16.033v1.205h1.868l3.962-3.112c.103-.114.258-.27.467-.465.56-.519.687-.698.687-.963 0-.206-.023-.31-.096-.31zm.943 1.95l-.339.338c-.19.18-.529.402-.761.497l-.046.02-.003.005-.01.01c-.009.007-.013.008-.02.011a3.432 3.432 0 01-.282.093 3.058 3.058 0 01-.65.115 1.035 1.035 0 01-.31-.027.364.364 0 01-.218-.144c-.048-.074-.062-.173-.035-.295a1.11 1.11 0 01.095-.25l-3.197 2.526h4.252l.508-.582c.698-.814 1.016-1.396 1.016-1.894z" fill="#000000" />
  </g>

  <g id="vsCode">
    <path d="M28,25.6l-5.9,2.4l-9.7-9.6l-6.1,4.8L4,21.9V10.1l2.3-1.2l6.1,4.8L22.1,4L28,6.4V25.6z M15.7,16l6.3,5l0,0V11L15.7,16  L15.7,16z M6.3,19.7L6.3,19.7L10,16l-3.6-3.7l0,0L6.3,19.7L6.3,19.7z" fill="#000000"/>
  </g>

  <g id="text">
    <path fill-rule="evenodd" clip-rule="evenodd" d="M3.46447 3.46447C2 4.92893 2 7.28595 2 12C2 16.714 2 19.0711 3.46447 20.5355C4.92893 22 7.28595 22 12 22C16.714 22 19.0711 22 20.5355 20.5355C22 19.0711 22 16.714 22 12C22 7.28595 22 4.92893 20.5355 3.46447C19.0711 2 16.714 2 12 2C7.28595 2 4.92893 2 3.46447 3.46447ZM9.95197 6.25C9.52211 6.24993 9.12024 6.24986 8.79192 6.29891C8.42102 6.35432 8.04 6.4853 7.73542 6.82371C7.44103 7.15082 7.3371 7.54061 7.29204 7.91294C7.24993 8.26096 7.24996 8.69238 7.25 9.17954L7.25 9.75C7.25 10.1642 7.58579 10.5 8 10.5C8.41421 10.5 8.75 10.1642 8.75 9.75V9.22222C8.75 8.67931 8.75129 8.34011 8.78118 8.09313C8.7952 7.97725 8.81273 7.91048 8.8269 7.87221C8.83885 7.83993 8.84739 7.83046 8.85023 7.82731L8.85104 7.82637C8.8524 7.82473 8.8534 7.82353 8.86242 7.8194C8.87904 7.8118 8.92168 7.79617 9.01354 7.78245C9.21765 7.75196 9.50511 7.75 10 7.75H11.25V16.25H9.5C9.08579 16.25 8.75 16.5858 8.75 17C8.75 17.4142 9.08579 17.75 9.5 17.75H15C15.4142 17.75 15.75 17.4142 15.75 17C15.75 16.5858 15.4142 16.25 15 16.25H12.75V7.75H14C14.4949 7.75 14.7824 7.75196 14.9865 7.78245C15.0783 7.79617 15.121 7.8118 15.1376 7.8194C15.1466 7.82353 15.1476 7.82473 15.149 7.82637L15.1496 7.82716C15.1525 7.83031 15.1611 7.83993 15.1731 7.87221C15.1873 7.91048 15.2048 7.97725 15.2188 8.09313C15.2487 8.34011 15.25 8.67931 15.25 9.22222V9.75C15.25 10.1642 15.5858 10.5 16 10.5C16.4142 10.5 16.75 10.1642 16.75 9.75L16.75 9.17953C16.75 8.69238 16.7501 8.26096 16.708 7.91294C16.6629 7.54061 16.559 7.15082 16.2646 6.82371C15.96 6.4853 15.579 6.35432 15.2081 6.29891C14.8798 6.24986 14.4779 6.24993 14.048 6.25H9.95197Z" fill="#1C274C"/>
  </g>
  <g id="telegramm">
    <path d="M41.4193 7.30899C41.4193 7.30899 45.3046 5.79399 44.9808 9.47328C44.8729 10.9883 43.9016 16.2908 43.1461 22.0262L40.5559 39.0159C40.5559 39.0159 40.3401 41.5048 38.3974 41.9377C36.4547 42.3705 33.5408 40.4227 33.0011 39.9898C32.5694 39.6652 24.9068 34.7955 22.2086 32.4148C21.4531 31.7655 20.5897 30.4669 22.3165 28.9519L33.6487 18.1305C34.9438 16.8319 36.2389 13.8019 30.8426 17.4812L15.7331 27.7616C15.7331 27.7616 14.0063 28.8437 10.7686 27.8698L3.75342 25.7055C3.75342 25.7055 1.16321 24.0823 5.58815 22.459C16.3807 17.3729 29.6555 12.1786 41.4193 7.30899Z" fill="#000000"/>
  </g>
  <g id="vk">
    <path d="M25.217 22.402h-2.179c-0.825 0-1.080-0.656-2.562-2.158-1.291-1.25-1.862-1.418-2.179-1.418-0.445 0-0.572 0.127-0.572 0.741v1.968c0 0.53-0.169 0.847-1.566 0.847-2.818-0.189-5.24-1.726-6.646-3.966l-0.021-0.035c-1.632-2.027-2.835-4.47-3.43-7.142l-0.022-0.117c0-0.317 0.127-0.614 0.741-0.614h2.179c0.55 0 0.762 0.254 0.975 0.846 1.078 3.112 2.878 5.842 3.619 5.842 0.275 0 0.402-0.127 0.402-0.825v-3.219c-0.085-1.482-0.868-1.608-0.868-2.137 0.009-0.283 0.241-0.509 0.525-0.509 0.009 0 0.017 0 0.026 0.001l-0.001-0h3.429c0.466 0 0.635 0.254 0.635 0.804v4.34c0 0.465 0.212 0.635 0.339 0.635 0.275 0 0.509-0.17 1.016-0.677 1.054-1.287 1.955-2.759 2.642-4.346l0.046-0.12c0.145-0.363 0.493-0.615 0.9-0.615 0.019 0 0.037 0.001 0.056 0.002l-0.003-0h2.179c0.656 0 0.805 0.337 0.656 0.804-0.874 1.925-1.856 3.579-2.994 5.111l0.052-0.074c-0.232 0.381-0.317 0.55 0 0.975 0.232 0.317 0.995 0.973 1.503 1.566 0.735 0.727 1.351 1.573 1.816 2.507l0.025 0.055c0.212 0.612-0.106 0.93-0.72 0.93zM20.604 1.004h-9.207c-8.403 0-10.392 1.989-10.392 10.392v9.207c0 8.403 1.989 10.392 10.392 10.392h9.207c8.403 0 10.392-1.989 10.392-10.392v-9.207c0-8.403-2.011-10.392-10.392-10.392z" fill="#000000"/>
  </g>
</svg>